<?xml version="1.0" encoding="utf-8" standalone="no"?>
<!DOCTYPE svg PUBLIC "-//W3C//DTD SVG 1.1//EN"
  "http://www.w3.org/Graphics/SVG/1.1/DTD/svg11.dtd">
<svg xmlns:xlink="http://www.w3.org/1999/xlink" width="864pt" height="576pt" viewBox="0 0 864 576" xmlns="http://www.w3.org/2000/svg" version="1.1">
 <metadata>
  <rdf:RDF xmlns:dc="http://purl.org/dc/elements/1.1/" xmlns:cc="http://creativecommons.org/ns#" xmlns:rdf="http://www.w3.org/1999/02/22-rdf-syntax-ns#">
   <cc:Work>
    <dc:type rdf:resource="http://purl.org/dc/dcmitype/StillImage"/>
    <dc:date>2026-03-22T16:43:51.364815</dc:date>
    <dc:format>image/svg+xml</dc:format>
    <dc:creator>
     <cc:Agent>
      <dc:title>Matplotlib v3.10.8, https://matplotlib.org/</dc:title>
     </cc:Agent>
    </dc:creator>
   </cc:Work>
  </rdf:RDF>
 </metadata>
 <defs>
  <style type="text/css">*{stroke-linejoin: round; stroke-linecap: butt}</style>
 </defs>
 <g id="figure_1">
  <g id="patch_1">
   <path d="M 0 576 
L 864 576 
L 864 0 
L 0 0 
z
" style="fill: #ffffff"/>
  </g>
  <g id="axes_1">
   <g id="patch_2">
    <path d="M 62.85 535.38 
L 838.116294 535.38 
L 838.116294 42.32 
L 62.85 42.32 
z
" style="fill: #eaeaf2"/>
   </g>
   <g id="matplotlib.axis_1">
    <g id="xtick_1">
     <g id="line2d_1">
      <path d="M 62.85 535.38 
L 62.85 42.32 
" clip-path="url(#p37cf30042e)" style="fill: none; stroke: #ffffff; stroke-opacity: 0.3; stroke-width: 0.8; stroke-linecap: round"/>
     </g>
     <g id="line2d_2"/>
     <g id="text_1">
      <!-- 0 -->
      <g style="fill: #262626" transform="translate(60.069531 546.126875) scale(0.1 -0.1)">
       <defs>
        <path id="LiberationSans-30" d="M 3309 2203 
Q 3309 1100 2920 518 
Q 2531 -63 1772 -63 
Q 1013 -63 631 515 
Q 250 1094 250 2203 
Q 250 3338 620 3903 
Q 991 4469 1791 4469 
Q 2569 4469 2939 3897 
Q 3309 3325 3309 2203 
z
M 2738 2203 
Q 2738 3156 2517 3584 
Q 2297 4013 1791 4013 
Q 1272 4013 1045 3591 
Q 819 3169 819 2203 
Q 819 1266 1048 831 
Q 1278 397 1778 397 
Q 2275 397 2506 840 
Q 2738 1284 2738 2203 
z
" transform="scale(0.015625)"/>
       </defs>
       <use xlink:href="#LiberationSans-30"/>
      </g>
     </g>
    </g>
    <g id="xtick_2">
     <g id="line2d_3">
      <path d="M 209.652971 535.38 
L 209.652971 42.32 
" clip-path="url(#p37cf30042e)" style="fill: none; stroke: #ffffff; stroke-opacity: 0.3; stroke-width: 0.8; stroke-linecap: round"/>
     </g>
     <g id="line2d_4"/>
     <g id="text_2">
      <!-- 10 -->
      <g style="fill: #262626" transform="translate(204.092034 546.126875) scale(0.1 -0.1)">
       <defs>
        <path id="LiberationSans-31" d="M 488 0 
L 488 478 
L 1609 478 
L 1609 3866 
L 616 3156 
L 616 3688 
L 1656 4403 
L 2175 4403 
L 2175 478 
L 3247 478 
L 3247 0 
L 488 0 
z
" transform="scale(0.015625)"/>
       </defs>
       <use xlink:href="#LiberationSans-31"/>
       <use xlink:href="#LiberationSans-30" transform="translate(55.615234 0)"/>
      </g>
     </g>
    </g>
    <g id="xtick_3">
     <g id="line2d_5">
      <path d="M 356.455942 535.38 
L 356.455942 42.32 
" clip-path="url(#p37cf30042e)" style="fill: none; stroke: #ffffff; stroke-opacity: 0.3; stroke-width: 0.8; stroke-linecap: round"/>
     </g>
     <g id="line2d_6"/>
     <g id="text_3">
      <!-- 20 -->
      <g style="fill: #262626" transform="translate(350.895005 546.126875) scale(0.1 -0.1)">
       <defs>
        <path id="LiberationSans-32" d="M 322 0 
L 322 397 
Q 481 763 711 1042 
Q 941 1322 1194 1548 
Q 1447 1775 1695 1969 
Q 1944 2163 2144 2356 
Q 2344 2550 2467 2762 
Q 2591 2975 2591 3244 
Q 2591 3606 2378 3806 
Q 2166 4006 1788 4006 
Q 1428 4006 1195 3811 
Q 963 3616 922 3263 
L 347 3316 
Q 409 3844 795 4156 
Q 1181 4469 1788 4469 
Q 2453 4469 2811 4155 
Q 3169 3841 3169 3263 
Q 3169 3006 3051 2753 
Q 2934 2500 2703 2247 
Q 2472 1994 1819 1463 
Q 1459 1169 1246 933 
Q 1034 697 941 478 
L 3238 478 
L 3238 0 
L 322 0 
z
" transform="scale(0.015625)"/>
       </defs>
       <use xlink:href="#LiberationSans-32"/>
       <use xlink:href="#LiberationSans-30" transform="translate(55.615234 0)"/>
      </g>
     </g>
    </g>
    <g id="xtick_4">
     <g id="line2d_7">
      <path d="M 503.258913 535.38 
L 503.258913 42.32 
" clip-path="url(#p37cf30042e)" style="fill: none; stroke: #ffffff; stroke-opacity: 0.3; stroke-width: 0.8; stroke-linecap: round"/>
     </g>
     <g id="line2d_8"/>
     <g id="text_4">
      <!-- 30 -->
      <g style="fill: #262626" transform="translate(497.697976 546.126875) scale(0.1 -0.1)">
       <defs>
        <path id="LiberationSans-33" d="M 3278 1216 
Q 3278 606 2890 271 
Q 2503 -63 1784 -63 
Q 1116 -63 717 239 
Q 319 541 244 1131 
L 825 1184 
Q 938 403 1784 403 
Q 2209 403 2451 612 
Q 2694 822 2694 1234 
Q 2694 1594 2417 1795 
Q 2141 1997 1619 1997 
L 1300 1997 
L 1300 2484 
L 1606 2484 
Q 2069 2484 2323 2686 
Q 2578 2888 2578 3244 
Q 2578 3597 2370 3801 
Q 2163 4006 1753 4006 
Q 1381 4006 1151 3815 
Q 922 3625 884 3278 
L 319 3322 
Q 381 3863 767 4166 
Q 1153 4469 1759 4469 
Q 2422 4469 2789 4161 
Q 3156 3853 3156 3303 
Q 3156 2881 2920 2617 
Q 2684 2353 2234 2259 
L 2234 2247 
Q 2728 2194 3003 1916 
Q 3278 1638 3278 1216 
z
" transform="scale(0.015625)"/>
       </defs>
       <use xlink:href="#LiberationSans-33"/>
       <use xlink:href="#LiberationSans-30" transform="translate(55.615234 0)"/>
      </g>
     </g>
    </g>
    <g id="xtick_5">
     <g id="line2d_9">
      <path d="M 650.061884 535.38 
L 650.061884 42.32 
" clip-path="url(#p37cf30042e)" style="fill: none; stroke: #ffffff; stroke-opacity: 0.3; stroke-width: 0.8; stroke-linecap: round"/>
     </g>
     <g id="line2d_10"/>
     <g id="text_5">
      <!-- 40 -->
      <g style="fill: #262626" transform="translate(644.500947 546.126875) scale(0.1 -0.1)">
       <defs>
        <path id="LiberationSans-34" d="M 2753 997 
L 2753 0 
L 2222 0 
L 2222 997 
L 147 997 
L 147 1434 
L 2163 4403 
L 2753 4403 
L 2753 1441 
L 3372 1441 
L 3372 997 
L 2753 997 
z
M 2222 3769 
Q 2216 3750 2134 3603 
Q 2053 3456 2013 3397 
L 884 1734 
L 716 1503 
L 666 1441 
L 2222 1441 
L 2222 3769 
z
" transform="scale(0.015625)"/>
       </defs>
       <use xlink:href="#LiberationSans-34"/>
       <use xlink:href="#LiberationSans-30" transform="translate(55.615234 0)"/>
      </g>
     </g>
    </g>
    <g id="xtick_6">
     <g id="line2d_11">
      <path d="M 796.864855 535.38 
L 796.864855 42.32 
" clip-path="url(#p37cf30042e)" style="fill: none; stroke: #ffffff; stroke-opacity: 0.3; stroke-width: 0.8; stroke-linecap: round"/>
     </g>
     <g id="line2d_12"/>
     <g id="text_6">
      <!-- 50 -->
      <g style="fill: #262626" transform="translate(791.303918 546.126875) scale(0.1 -0.1)">
       <defs>
        <path id="LiberationSans-35" d="M 3291 1434 
Q 3291 738 2877 337 
Q 2463 -63 1728 -63 
Q 1113 -63 734 206 
Q 356 475 256 984 
L 825 1050 
Q 1003 397 1741 397 
Q 2194 397 2450 670 
Q 2706 944 2706 1422 
Q 2706 1838 2448 2094 
Q 2191 2350 1753 2350 
Q 1525 2350 1328 2278 
Q 1131 2206 934 2034 
L 384 2034 
L 531 4403 
L 3034 4403 
L 3034 3925 
L 1044 3925 
L 959 2528 
Q 1325 2809 1869 2809 
Q 2519 2809 2905 2428 
Q 3291 2047 3291 1434 
z
" transform="scale(0.015625)"/>
       </defs>
       <use xlink:href="#LiberationSans-35"/>
       <use xlink:href="#LiberationSans-30" transform="translate(55.615234 0)"/>
      </g>
     </g>
    </g>
    <g id="text_7">
     <!-- Mean KPI16 (kg) -->
     <g style="fill: #262626" transform="translate(396.417991 562.3475) scale(0.14 -0.14)">
      <defs>
       <path id="LiberationSans-Bold-4d" d="M 4084 0 
L 4084 2669 
Q 4084 2759 4086 2850 
Q 4088 2941 4116 3628 
Q 3894 2788 3788 2456 
L 2994 0 
L 2338 0 
L 1544 2456 
L 1209 3628 
Q 1247 2903 1247 2669 
L 1247 0 
L 428 0 
L 428 4403 
L 1663 4403 
L 2450 1941 
L 2519 1703 
L 2669 1113 
L 2866 1819 
L 3675 4403 
L 4903 4403 
L 4903 0 
L 4084 0 
z
" transform="scale(0.015625)"/>
       <path id="LiberationSans-Bold-65" d="M 1831 -63 
Q 1069 -63 659 389 
Q 250 841 250 1706 
Q 250 2544 665 2994 
Q 1081 3444 1844 3444 
Q 2572 3444 2956 2961 
Q 3341 2478 3341 1547 
L 3341 1522 
L 1172 1522 
Q 1172 1028 1355 776 
Q 1538 525 1875 525 
Q 2341 525 2463 928 
L 3291 856 
Q 2931 -63 1831 -63 
z
M 1831 2891 
Q 1522 2891 1355 2675 
Q 1188 2459 1178 2072 
L 2491 2072 
Q 2466 2481 2294 2686 
Q 2122 2891 1831 2891 
z
" transform="scale(0.015625)"/>
       <path id="LiberationSans-Bold-61" d="M 1228 -63 
Q 738 -63 463 204 
Q 188 472 188 956 
Q 188 1481 530 1756 
Q 872 2031 1522 2038 
L 2250 2050 
L 2250 2222 
Q 2250 2553 2134 2714 
Q 2019 2875 1756 2875 
Q 1513 2875 1398 2764 
Q 1284 2653 1256 2397 
L 341 2441 
Q 425 2934 792 3189 
Q 1159 3444 1794 3444 
Q 2434 3444 2781 3128 
Q 3128 2813 3128 2231 
L 3128 1000 
Q 3128 716 3192 608 
Q 3256 500 3406 500 
Q 3506 500 3600 519 
L 3600 44 
Q 3522 25 3459 9 
Q 3397 -6 3334 -15 
Q 3272 -25 3201 -31 
Q 3131 -38 3038 -38 
Q 2706 -38 2548 125 
Q 2391 288 2359 603 
L 2341 603 
Q 1972 -63 1228 -63 
z
M 2250 1566 
L 1800 1559 
Q 1494 1547 1366 1492 
Q 1238 1438 1170 1325 
Q 1103 1213 1103 1025 
Q 1103 784 1214 667 
Q 1325 550 1509 550 
Q 1716 550 1886 662 
Q 2056 775 2153 973 
Q 2250 1172 2250 1394 
L 2250 1566 
z
" transform="scale(0.015625)"/>
       <path id="LiberationSans-Bold-6e" d="M 2638 0 
L 2638 1897 
Q 2638 2788 2034 2788 
Q 1716 2788 1520 2514 
Q 1325 2241 1325 1813 
L 1325 0 
L 447 0 
L 447 2625 
Q 447 2897 439 3070 
Q 431 3244 422 3381 
L 1259 3381 
Q 1269 3322 1284 3064 
Q 1300 2806 1300 2709 
L 1313 2709 
Q 1491 3097 1759 3272 
Q 2028 3447 2400 3447 
Q 2938 3447 3225 3115 
Q 3513 2784 3513 2147 
L 3513 0 
L 2638 0 
z
" transform="scale(0.015625)"/>
       <path id="LiberationSans-Bold-20" transform="scale(0.015625)"/>
       <path id="LiberationSans-Bold-4b" d="M 3475 0 
L 1894 2022 
L 1350 1606 
L 1350 0 
L 428 0 
L 428 4403 
L 1350 4403 
L 1350 2406 
L 3334 4403 
L 4409 4403 
L 2528 2541 
L 4563 0 
L 3475 0 
z
" transform="scale(0.015625)"/>
       <path id="LiberationSans-Bold-50" d="M 4050 3009 
Q 4050 2584 3856 2250 
Q 3663 1916 3302 1733 
Q 2941 1550 2444 1550 
L 1350 1550 
L 1350 0 
L 428 0 
L 428 4403 
L 2406 4403 
Q 3197 4403 3623 4039 
Q 4050 3675 4050 3009 
z
M 3122 2994 
Q 3122 3688 2303 3688 
L 1350 3688 
L 1350 2259 
L 2328 2259 
Q 2709 2259 2915 2448 
Q 3122 2638 3122 2994 
z
" transform="scale(0.015625)"/>
       <path id="LiberationSans-Bold-49" d="M 428 0 
L 428 4403 
L 1350 4403 
L 1350 0 
L 428 0 
z
" transform="scale(0.015625)"/>
       <path id="LiberationSans-Bold-31" d="M 403 0 
L 403 653 
L 1494 653 
L 1494 3656 
L 438 2997 
L 438 3688 
L 1541 4403 
L 2372 4403 
L 2372 653 
L 3381 653 
L 3381 0 
L 403 0 
z
" transform="scale(0.015625)"/>
       <path id="LiberationSans-Bold-36" d="M 3328 1441 
Q 3328 738 2934 337 
Q 2541 -63 1847 -63 
Q 1069 -63 651 482 
Q 234 1028 234 2100 
Q 234 3278 657 3873 
Q 1081 4469 1869 4469 
Q 2428 4469 2751 4222 
Q 3075 3975 3209 3456 
L 2381 3341 
Q 2263 3775 1850 3775 
Q 1497 3775 1295 3422 
Q 1094 3069 1094 2350 
Q 1234 2584 1484 2709 
Q 1734 2834 2050 2834 
Q 2641 2834 2984 2459 
Q 3328 2084 3328 1441 
z
M 2447 1416 
Q 2447 1791 2273 1989 
Q 2100 2188 1797 2188 
Q 1506 2188 1331 2002 
Q 1156 1816 1156 1509 
Q 1156 1125 1339 873 
Q 1522 622 1819 622 
Q 2116 622 2281 833 
Q 2447 1044 2447 1416 
z
" transform="scale(0.015625)"/>
       <path id="LiberationSans-Bold-28" d="M 1247 -1328 
Q 756 -622 537 81 
Q 319 784 319 1659 
Q 319 2531 537 3232 
Q 756 3934 1247 4638 
L 2125 4638 
Q 1631 3925 1407 3219 
Q 1184 2513 1184 1656 
Q 1184 803 1406 101 
Q 1628 -600 2125 -1328 
L 1247 -1328 
z
" transform="scale(0.015625)"/>
       <path id="LiberationSans-Bold-6b" d="M 2606 0 
L 1703 1531 
L 1325 1269 
L 1325 0 
L 447 0 
L 447 4638 
L 1325 4638 
L 1325 1981 
L 2531 3381 
L 3475 3381 
L 2288 2063 
L 3566 0 
L 2606 0 
z
" transform="scale(0.015625)"/>
       <path id="LiberationSans-Bold-67" d="M 1863 -1356 
Q 1244 -1356 867 -1120 
Q 491 -884 403 -447 
L 1281 -344 
Q 1328 -547 1483 -662 
Q 1638 -778 1888 -778 
Q 2253 -778 2422 -553 
Q 2591 -328 2591 116 
L 2591 294 
L 2597 628 
L 2591 628 
Q 2300 6 1503 6 
Q 913 6 588 450 
Q 263 894 263 1719 
Q 263 2547 597 2997 
Q 931 3447 1569 3447 
Q 2306 3447 2591 2838 
L 2606 2838 
Q 2606 2947 2620 3134 
Q 2634 3322 2650 3381 
L 3481 3381 
Q 3463 3044 3463 2600 
L 3463 103 
Q 3463 -619 3053 -987 
Q 2644 -1356 1863 -1356 
z
M 2597 1738 
Q 2597 2259 2411 2551 
Q 2225 2844 1881 2844 
Q 1178 2844 1178 1719 
Q 1178 616 1875 616 
Q 2225 616 2411 908 
Q 2597 1200 2597 1738 
z
" transform="scale(0.015625)"/>
       <path id="LiberationSans-Bold-29" d="M 6 -1328 
Q 506 -597 726 101 
Q 947 800 947 1656 
Q 947 2516 722 3223 
Q 497 3931 6 4638 
L 884 4638 
Q 1378 3928 1595 3225 
Q 1813 2522 1813 1659 
Q 1813 791 1595 87 
Q 1378 -616 884 -1328 
L 6 -1328 
z
" transform="scale(0.015625)"/>
      </defs>
      <use xlink:href="#LiberationSans-Bold-4d"/>
      <use xlink:href="#LiberationSans-Bold-65" transform="translate(83.300781 0)"/>
      <use xlink:href="#LiberationSans-Bold-61" transform="translate(138.916016 0)"/>
      <use xlink:href="#LiberationSans-Bold-6e" transform="translate(194.53125 0)"/>
      <use xlink:href="#LiberationSans-Bold-20" transform="translate(255.615234 0)"/>
      <use xlink:href="#LiberationSans-Bold-4b" transform="translate(283.398438 0)"/>
      <use xlink:href="#LiberationSans-Bold-50" transform="translate(355.615234 0)"/>
      <use xlink:href="#LiberationSans-Bold-49" transform="translate(422.314453 0)"/>
      <use xlink:href="#LiberationSans-Bold-31" transform="translate(450.097656 0)"/>
      <use xlink:href="#LiberationSans-Bold-36" transform="translate(505.712891 0)"/>
      <use xlink:href="#LiberationSans-Bold-20" transform="translate(561.328125 0)"/>
      <use xlink:href="#LiberationSans-Bold-28" transform="translate(589.111328 0)"/>
      <use xlink:href="#LiberationSans-Bold-6b" transform="translate(622.412109 0)"/>
      <use xlink:href="#LiberationSans-Bold-67" transform="translate(678.027344 0)"/>
      <use xlink:href="#LiberationSans-Bold-29" transform="translate(739.111328 0)"/>
     </g>
    </g>
   </g>
   <g id="matplotlib.axis_2">
    <g id="ytick_1">
     <g id="line2d_13">
      <path d="M 62.85 500.853686 
L 838.116294 500.853686 
" clip-path="url(#p37cf30042e)" style="fill: none; stroke: #ffffff; stroke-width: 0.8; stroke-linecap: round"/>
     </g>
     <g id="line2d_14"/>
     <g id="text_8">
      <!-- SBSV -->
      <g style="fill: #262626" transform="translate(30.000625 504.839467) scale(0.11 -0.11)">
       <defs>
        <path id="LiberationSans-53" d="M 3975 1216 
Q 3975 606 3498 271 
Q 3022 -63 2156 -63 
Q 547 -63 291 1056 
L 869 1172 
Q 969 775 1294 589 
Q 1619 403 2178 403 
Q 2756 403 3070 601 
Q 3384 800 3384 1184 
Q 3384 1400 3286 1534 
Q 3188 1669 3009 1756 
Q 2831 1844 2584 1903 
Q 2338 1963 2038 2031 
Q 1516 2147 1245 2262 
Q 975 2378 819 2520 
Q 663 2663 580 2853 
Q 497 3044 497 3291 
Q 497 3856 930 4162 
Q 1363 4469 2169 4469 
Q 2919 4469 3316 4239 
Q 3713 4009 3872 3456 
L 3284 3353 
Q 3188 3703 2916 3861 
Q 2644 4019 2163 4019 
Q 1634 4019 1356 3844 
Q 1078 3669 1078 3322 
Q 1078 3119 1186 2986 
Q 1294 2853 1497 2761 
Q 1700 2669 2306 2534 
Q 2509 2488 2711 2439 
Q 2913 2391 3097 2323 
Q 3281 2256 3442 2165 
Q 3603 2075 3722 1944 
Q 3841 1813 3908 1634 
Q 3975 1456 3975 1216 
z
" transform="scale(0.015625)"/>
        <path id="LiberationSans-42" d="M 3931 1241 
Q 3931 653 3503 326 
Q 3075 0 2313 0 
L 525 0 
L 525 4403 
L 2125 4403 
Q 3675 4403 3675 3334 
Q 3675 2944 3456 2678 
Q 3238 2413 2838 2322 
Q 3363 2259 3647 1970 
Q 3931 1681 3931 1241 
z
M 3075 3263 
Q 3075 3619 2831 3772 
Q 2588 3925 2125 3925 
L 1122 3925 
L 1122 2531 
L 2125 2531 
Q 2603 2531 2839 2711 
Q 3075 2891 3075 3263 
z
M 3328 1288 
Q 3328 2066 2234 2066 
L 1122 2066 
L 1122 478 
L 2281 478 
Q 2828 478 3078 681 
Q 3328 884 3328 1288 
z
" transform="scale(0.015625)"/>
        <path id="LiberationSans-56" d="M 2444 0 
L 1825 0 
L 28 4403 
L 656 4403 
L 1875 1303 
L 2138 525 
L 2400 1303 
L 3613 4403 
L 4241 4403 
L 2444 0 
z
" transform="scale(0.015625)"/>
       </defs>
       <use xlink:href="#LiberationSans-53"/>
       <use xlink:href="#LiberationSans-42" transform="translate(66.699219 0)"/>
       <use xlink:href="#LiberationSans-53" transform="translate(133.398438 0)"/>
       <use xlink:href="#LiberationSans-56" transform="translate(200.097656 0)"/>
      </g>
     </g>
    </g>
    <g id="ytick_2">
     <g id="line2d_15">
      <path d="M 62.85 470.567445 
L 838.116294 470.567445 
" clip-path="url(#p37cf30042e)" style="fill: none; stroke: #ffffff; stroke-width: 0.8; stroke-linecap: round"/>
     </g>
     <g id="line2d_16"/>
     <g id="text_9">
      <!-- SBCF -->
      <g style="fill: #262626" transform="translate(30.012656 474.553226) scale(0.11 -0.11)">
       <defs>
        <path id="LiberationSans-43" d="M 2475 3981 
Q 1744 3981 1337 3511 
Q 931 3041 931 2222 
Q 931 1413 1354 920 
Q 1778 428 2500 428 
Q 3425 428 3891 1344 
L 4378 1100 
Q 4106 531 3614 234 
Q 3122 -63 2472 -63 
Q 1806 -63 1320 214 
Q 834 491 579 1005 
Q 325 1519 325 2222 
Q 325 3275 894 3872 
Q 1463 4469 2469 4469 
Q 3172 4469 3644 4194 
Q 4116 3919 4338 3378 
L 3772 3191 
Q 3619 3575 3280 3778 
Q 2941 3981 2475 3981 
z
" transform="scale(0.015625)"/>
        <path id="LiberationSans-46" d="M 1122 3916 
L 1122 2278 
L 3578 2278 
L 3578 1784 
L 1122 1784 
L 1122 0 
L 525 0 
L 525 4403 
L 3653 4403 
L 3653 3916 
L 1122 3916 
z
" transform="scale(0.015625)"/>
       </defs>
       <use xlink:href="#LiberationSans-53"/>
       <use xlink:href="#LiberationSans-42" transform="translate(66.699219 0)"/>
       <use xlink:href="#LiberationSans-43" transform="translate(133.398438 0)"/>
       <use xlink:href="#LiberationSans-46" transform="translate(205.615234 0)"/>
      </g>
     </g>
    </g>
    <g id="ytick_3">
     <g id="line2d_17">
      <path d="M 62.85 440.281204 
L 838.116294 440.281204 
" clip-path="url(#p37cf30042e)" style="fill: none; stroke: #ffffff; stroke-width: 0.8; stroke-linecap: round"/>
     </g>
     <g id="line2d_18"/>
     <g id="text_10">
      <!-- SBMO -->
      <g style="fill: #262626" transform="translate(26.956719 444.266985) scale(0.11 -0.11)">
       <defs>
        <path id="LiberationSans-4d" d="M 4269 0 
L 4269 2938 
Q 4269 3425 4297 3875 
Q 4144 3316 4022 3000 
L 2884 0 
L 2466 0 
L 1313 3000 
L 1138 3531 
L 1034 3875 
L 1044 3528 
L 1056 2938 
L 1056 0 
L 525 0 
L 525 4403 
L 1309 4403 
L 2481 1350 
Q 2544 1166 2601 955 
Q 2659 744 2678 650 
Q 2703 775 2783 1029 
Q 2863 1284 2891 1350 
L 4041 4403 
L 4806 4403 
L 4806 0 
L 4269 0 
z
" transform="scale(0.015625)"/>
        <path id="LiberationSans-4f" d="M 4672 2222 
Q 4672 1531 4408 1012 
Q 4144 494 3650 215 
Q 3156 -63 2484 -63 
Q 1806 -63 1314 212 
Q 822 488 562 1008 
Q 303 1528 303 2222 
Q 303 3278 881 3873 
Q 1459 4469 2491 4469 
Q 3163 4469 3656 4201 
Q 4150 3934 4411 3425 
Q 4672 2916 4672 2222 
z
M 4063 2222 
Q 4063 3044 3652 3512 
Q 3241 3981 2491 3981 
Q 1734 3981 1321 3518 
Q 909 3056 909 2222 
Q 909 1394 1326 908 
Q 1744 422 2484 422 
Q 3247 422 3655 892 
Q 4063 1363 4063 2222 
z
" transform="scale(0.015625)"/>
       </defs>
       <use xlink:href="#LiberationSans-53"/>
       <use xlink:href="#LiberationSans-42" transform="translate(66.699219 0)"/>
       <use xlink:href="#LiberationSans-4d" transform="translate(133.398438 0)"/>
       <use xlink:href="#LiberationSans-4f" transform="translate(216.699219 0)"/>
      </g>
     </g>
    </g>
    <g id="ytick_4">
     <g id="line2d_19">
      <path d="M 62.85 409.994963 
L 838.116294 409.994963 
" clip-path="url(#p37cf30042e)" style="fill: none; stroke: #ffffff; stroke-width: 0.8; stroke-linecap: round"/>
     </g>
     <g id="line2d_20"/>
     <g id="text_11">
      <!-- SBBR -->
      <g style="fill: #262626" transform="translate(29.393906 413.980744) scale(0.11 -0.11)">
       <defs>
        <path id="LiberationSans-52" d="M 3638 0 
L 2494 1828 
L 1122 1828 
L 1122 0 
L 525 0 
L 525 4403 
L 2597 4403 
Q 3341 4403 3745 4070 
Q 4150 3738 4150 3144 
Q 4150 2653 3864 2318 
Q 3578 1984 3075 1897 
L 4325 0 
L 3638 0 
z
M 3550 3138 
Q 3550 3522 3289 3723 
Q 3028 3925 2538 3925 
L 1122 3925 
L 1122 2300 
L 2563 2300 
Q 3034 2300 3292 2520 
Q 3550 2741 3550 3138 
z
" transform="scale(0.015625)"/>
       </defs>
       <use xlink:href="#LiberationSans-53"/>
       <use xlink:href="#LiberationSans-42" transform="translate(66.699219 0)"/>
       <use xlink:href="#LiberationSans-42" transform="translate(133.398438 0)"/>
       <use xlink:href="#LiberationSans-52" transform="translate(200.097656 0)"/>
      </g>
     </g>
    </g>
    <g id="ytick_5">
     <g id="line2d_21">
      <path d="M 62.85 379.708722 
L 838.116294 379.708722 
" clip-path="url(#p37cf30042e)" style="fill: none; stroke: #ffffff; stroke-width: 0.8; stroke-linecap: round"/>
     </g>
     <g id="line2d_22"/>
     <g id="text_12">
      <!-- SBBE -->
      <g style="fill: #262626" transform="translate(30.000625 383.694504) scale(0.11 -0.11)">
       <defs>
        <path id="LiberationSans-45" d="M 525 0 
L 525 4403 
L 3866 4403 
L 3866 3916 
L 1122 3916 
L 1122 2503 
L 3678 2503 
L 3678 2022 
L 1122 2022 
L 1122 488 
L 3994 488 
L 3994 0 
L 525 0 
z
" transform="scale(0.015625)"/>
       </defs>
       <use xlink:href="#LiberationSans-53"/>
       <use xlink:href="#LiberationSans-42" transform="translate(66.699219 0)"/>
       <use xlink:href="#LiberationSans-42" transform="translate(133.398438 0)"/>
       <use xlink:href="#LiberationSans-45" transform="translate(200.097656 0)"/>
      </g>
     </g>
    </g>
    <g id="ytick_6">
     <g id="line2d_23">
      <path d="M 62.85 349.422482 
L 838.116294 349.422482 
" clip-path="url(#p37cf30042e)" style="fill: none; stroke: #ffffff; stroke-width: 0.8; stroke-linecap: round"/>
     </g>
     <g id="line2d_24"/>
     <g id="text_13">
      <!-- SBFZ -->
      <g style="fill: #262626" transform="translate(31.238125 353.408263) scale(0.11 -0.11)">
       <defs>
        <path id="LiberationSans-5a" d="M 3709 0 
L 203 0 
L 203 447 
L 2884 3916 
L 431 3916 
L 431 4403 
L 3563 4403 
L 3563 3969 
L 881 488 
L 3709 488 
L 3709 0 
z
" transform="scale(0.015625)"/>
       </defs>
       <use xlink:href="#LiberationSans-53"/>
       <use xlink:href="#LiberationSans-42" transform="translate(66.699219 0)"/>
       <use xlink:href="#LiberationSans-46" transform="translate(133.398438 0)"/>
       <use xlink:href="#LiberationSans-5a" transform="translate(194.482422 0)"/>
      </g>
     </g>
    </g>
    <g id="ytick_7">
     <g id="line2d_25">
      <path d="M 62.85 319.136241 
L 838.116294 319.136241 
" clip-path="url(#p37cf30042e)" style="fill: none; stroke: #ffffff; stroke-width: 0.8; stroke-linecap: round"/>
     </g>
     <g id="line2d_26"/>
     <g id="text_14">
      <!-- SBGL -->
      <g style="fill: #262626" transform="translate(30.002344 323.122022) scale(0.11 -0.11)">
       <defs>
        <path id="LiberationSans-47" d="M 322 2222 
Q 322 3294 897 3881 
Q 1472 4469 2513 4469 
Q 3244 4469 3700 4222 
Q 4156 3975 4403 3431 
L 3834 3263 
Q 3647 3638 3317 3809 
Q 2988 3981 2497 3981 
Q 1734 3981 1331 3520 
Q 928 3059 928 2222 
Q 928 1388 1356 905 
Q 1784 422 2541 422 
Q 2972 422 3345 553 
Q 3719 684 3950 909 
L 3950 1703 
L 2634 1703 
L 2634 2203 
L 4500 2203 
L 4500 684 
Q 4150 328 3642 132 
Q 3134 -63 2541 -63 
Q 1850 -63 1350 212 
Q 850 488 586 1005 
Q 322 1522 322 2222 
z
" transform="scale(0.015625)"/>
        <path id="LiberationSans-4c" d="M 525 0 
L 525 4403 
L 1122 4403 
L 1122 488 
L 3347 488 
L 3347 0 
L 525 0 
z
" transform="scale(0.015625)"/>
       </defs>
       <use xlink:href="#LiberationSans-53"/>
       <use xlink:href="#LiberationSans-42" transform="translate(66.699219 0)"/>
       <use xlink:href="#LiberationSans-47" transform="translate(133.398438 0)"/>
       <use xlink:href="#LiberationSans-4c" transform="translate(211.181641 0)"/>
      </g>
     </g>
    </g>
    <g id="ytick_8">
     <g id="line2d_27">
      <path d="M 62.85 288.85 
L 838.116294 288.85 
" clip-path="url(#p37cf30042e)" style="fill: none; stroke: #ffffff; stroke-width: 0.8; stroke-linecap: round"/>
     </g>
     <g id="line2d_28"/>
     <g id="text_15">
      <!-- SBRF -->
      <g style="fill: #262626" transform="translate(30.012656 292.835781) scale(0.11 -0.11)">
       <use xlink:href="#LiberationSans-53"/>
       <use xlink:href="#LiberationSans-42" transform="translate(66.699219 0)"/>
       <use xlink:href="#LiberationSans-52" transform="translate(133.398438 0)"/>
       <use xlink:href="#LiberationSans-46" transform="translate(205.615234 0)"/>
      </g>
     </g>
    </g>
    <g id="ytick_9">
     <g id="line2d_29">
      <path d="M 62.85 258.563759 
L 838.116294 258.563759 
" clip-path="url(#p37cf30042e)" style="fill: none; stroke: #ffffff; stroke-width: 0.8; stroke-linecap: round"/>
     </g>
     <g id="line2d_30"/>
     <g id="text_16">
      <!-- SBVT -->
      <g style="fill: #262626" transform="translate(30.619375 262.54954) scale(0.11 -0.11)">
       <defs>
        <path id="LiberationSans-54" d="M 2250 3916 
L 2250 0 
L 1656 0 
L 1656 3916 
L 144 3916 
L 144 4403 
L 3763 4403 
L 3763 3916 
L 2250 3916 
z
" transform="scale(0.015625)"/>
       </defs>
       <use xlink:href="#LiberationSans-53"/>
       <use xlink:href="#LiberationSans-42" transform="translate(66.699219 0)"/>
       <use xlink:href="#LiberationSans-56" transform="translate(133.398438 0)"/>
       <use xlink:href="#LiberationSans-54" transform="translate(200.097656 0)"/>
      </g>
     </g>
    </g>
    <g id="ytick_10">
     <g id="line2d_31">
      <path d="M 62.85 228.277518 
L 838.116294 228.277518 
" clip-path="url(#p37cf30042e)" style="fill: none; stroke: #ffffff; stroke-width: 0.8; stroke-linecap: round"/>
     </g>
     <g id="line2d_32"/>
     <g id="text_17">
      <!-- SBGO -->
      <g style="fill: #262626" transform="translate(27.563438 232.2633) scale(0.11 -0.11)">
       <use xlink:href="#LiberationSans-53"/>
       <use xlink:href="#LiberationSans-42" transform="translate(66.699219 0)"/>
       <use xlink:href="#LiberationSans-47" transform="translate(133.398438 0)"/>
       <use xlink:href="#LiberationSans-4f" transform="translate(211.181641 0)"/>
      </g>
     </g>
    </g>
    <g id="ytick_11">
     <g id="line2d_33">
      <path d="M 62.85 197.991278 
L 838.116294 197.991278 
" clip-path="url(#p37cf30042e)" style="fill: none; stroke: #ffffff; stroke-width: 0.8; stroke-linecap: round"/>
     </g>
     <g id="line2d_34"/>
     <g id="text_18">
      <!-- SBNF -->
      <g style="fill: #262626" transform="translate(30.012656 201.977059) scale(0.11 -0.11)">
       <defs>
        <path id="LiberationSans-4e" d="M 3381 0 
L 1025 3750 
L 1041 3447 
L 1056 2925 
L 1056 0 
L 525 0 
L 525 4403 
L 1219 4403 
L 3600 628 
Q 3563 1241 3563 1516 
L 3563 4403 
L 4100 4403 
L 4100 0 
L 3381 0 
z
" transform="scale(0.015625)"/>
       </defs>
       <use xlink:href="#LiberationSans-53"/>
       <use xlink:href="#LiberationSans-42" transform="translate(66.699219 0)"/>
       <use xlink:href="#LiberationSans-4e" transform="translate(133.398438 0)"/>
       <use xlink:href="#LiberationSans-46" transform="translate(205.615234 0)"/>
      </g>
     </g>
    </g>
    <g id="ytick_12">
     <g id="line2d_35">
      <path d="M 62.85 167.705037 
L 838.116294 167.705037 
" clip-path="url(#p37cf30042e)" style="fill: none; stroke: #ffffff; stroke-width: 0.8; stroke-linecap: round"/>
     </g>
     <g id="line2d_36"/>
     <g id="text_19">
      <!-- SBCY -->
      <g style="fill: #262626" transform="translate(29.393906 171.690818) scale(0.11 -0.11)">
       <defs>
        <path id="LiberationSans-59" d="M 2428 1825 
L 2428 0 
L 1834 0 
L 1834 1825 
L 141 4403 
L 797 4403 
L 2138 2306 
L 3472 4403 
L 4128 4403 
L 2428 1825 
z
" transform="scale(0.015625)"/>
       </defs>
       <use xlink:href="#LiberationSans-53"/>
       <use xlink:href="#LiberationSans-42" transform="translate(66.699219 0)"/>
       <use xlink:href="#LiberationSans-43" transform="translate(133.398438 0)"/>
       <use xlink:href="#LiberationSans-59" transform="translate(205.615234 0)"/>
      </g>
     </g>
    </g>
    <g id="ytick_13">
     <g id="line2d_37">
      <path d="M 62.85 137.418796 
L 838.116294 137.418796 
" clip-path="url(#p37cf30042e)" style="fill: none; stroke: #ffffff; stroke-width: 0.8; stroke-linecap: round"/>
     </g>
     <g id="line2d_38"/>
     <g id="text_20">
      <!-- SBPA -->
      <g style="fill: #262626" transform="translate(30.811875 141.404577) scale(0.11 -0.11)">
       <defs>
        <path id="LiberationSans-50" d="M 3931 3078 
Q 3931 2453 3523 2084 
Q 3116 1716 2416 1716 
L 1122 1716 
L 1122 0 
L 525 0 
L 525 4403 
L 2378 4403 
Q 3119 4403 3525 4056 
Q 3931 3709 3931 3078 
z
M 3331 3072 
Q 3331 3925 2306 3925 
L 1122 3925 
L 1122 2188 
L 2331 2188 
Q 3331 2188 3331 3072 
z
" transform="scale(0.015625)"/>
        <path id="LiberationSans-41" d="M 3647 0 
L 3144 1288 
L 1138 1288 
L 631 0 
L 13 0 
L 1809 4403 
L 2488 4403 
L 4256 0 
L 3647 0 
z
M 2141 3953 
L 2113 3866 
Q 2034 3606 1881 3200 
L 1319 1753 
L 2966 1753 
L 2400 3206 
Q 2313 3422 2225 3694 
L 2141 3953 
z
" transform="scale(0.015625)"/>
       </defs>
       <use xlink:href="#LiberationSans-53"/>
       <use xlink:href="#LiberationSans-42" transform="translate(66.699219 0)"/>
       <use xlink:href="#LiberationSans-50" transform="translate(133.398438 0)"/>
       <use xlink:href="#LiberationSans-41" transform="translate(192.722656 0)"/>
      </g>
     </g>
    </g>
    <g id="ytick_14">
     <g id="line2d_39">
      <path d="M 62.85 107.132555 
L 838.116294 107.132555 
" clip-path="url(#p37cf30042e)" style="fill: none; stroke: #ffffff; stroke-width: 0.8; stroke-linecap: round"/>
     </g>
     <g id="line2d_40"/>
     <g id="text_21">
      <!-- SBCT -->
      <g style="fill: #262626" transform="translate(30.012656 111.118337) scale(0.11 -0.11)">
       <use xlink:href="#LiberationSans-53"/>
       <use xlink:href="#LiberationSans-42" transform="translate(66.699219 0)"/>
       <use xlink:href="#LiberationSans-43" transform="translate(133.398438 0)"/>
       <use xlink:href="#LiberationSans-54" transform="translate(205.615234 0)"/>
      </g>
     </g>
    </g>
    <g id="ytick_15">
     <g id="line2d_41">
      <path d="M 62.85 76.846314 
L 838.116294 76.846314 
" clip-path="url(#p37cf30042e)" style="fill: none; stroke: #ffffff; stroke-width: 0.8; stroke-linecap: round"/>
     </g>
     <g id="line2d_42"/>
     <g id="text_22">
      <!-- SBFL -->
      <g style="fill: #262626" transform="translate(31.839688 80.832096) scale(0.11 -0.11)">
       <use xlink:href="#LiberationSans-53"/>
       <use xlink:href="#LiberationSans-42" transform="translate(66.699219 0)"/>
       <use xlink:href="#LiberationSans-46" transform="translate(133.398438 0)"/>
       <use xlink:href="#LiberationSans-4c" transform="translate(194.482422 0)"/>
      </g>
     </g>
    </g>
    <g id="text_23">
     <!-- ADEP (Departure Airport) -->
     <g style="fill: #262626" transform="translate(20.051719 372.859844) rotate(-90) scale(0.14 -0.14)">
      <defs>
       <path id="LiberationSans-Bold-41" d="M 3541 0 
L 3150 1125 
L 1472 1125 
L 1081 0 
L 159 0 
L 1766 4403 
L 2853 4403 
L 4453 0 
L 3541 0 
z
M 2309 3725 
L 2291 3656 
Q 2259 3544 2215 3400 
Q 2172 3256 1678 1819 
L 2944 1819 
L 2509 3084 
L 2375 3509 
L 2309 3725 
z
" transform="scale(0.015625)"/>
       <path id="LiberationSans-Bold-44" d="M 4353 2234 
Q 4353 1553 4086 1045 
Q 3819 538 3330 269 
Q 2841 0 2209 0 
L 428 0 
L 428 4403 
L 2022 4403 
Q 3134 4403 3743 3842 
Q 4353 3281 4353 2234 
z
M 3425 2234 
Q 3425 2944 3056 3317 
Q 2688 3691 2003 3691 
L 1350 3691 
L 1350 713 
L 2131 713 
Q 2725 713 3075 1122 
Q 3425 1531 3425 2234 
z
" transform="scale(0.015625)"/>
       <path id="LiberationSans-Bold-45" d="M 428 0 
L 428 4403 
L 3891 4403 
L 3891 3691 
L 1350 3691 
L 1350 2584 
L 3700 2584 
L 3700 1872 
L 1350 1872 
L 1350 713 
L 4019 713 
L 4019 0 
L 428 0 
z
" transform="scale(0.015625)"/>
       <path id="LiberationSans-Bold-70" d="M 3647 1706 
Q 3647 859 3308 398 
Q 2969 -63 2350 -63 
Q 1994 -63 1730 92 
Q 1466 247 1325 538 
L 1306 538 
Q 1325 444 1325 -31 
L 1325 -1328 
L 447 -1328 
L 447 2603 
Q 447 3081 422 3381 
L 1275 3381 
Q 1291 3325 1302 3159 
Q 1313 2994 1313 2831 
L 1325 2831 
Q 1622 3453 2406 3453 
Q 2997 3453 3322 2998 
Q 3647 2544 3647 1706 
z
M 2731 1706 
Q 2731 2844 2034 2844 
Q 1684 2844 1498 2537 
Q 1313 2231 1313 1681 
Q 1313 1134 1498 836 
Q 1684 538 2028 538 
Q 2731 538 2731 1706 
z
" transform="scale(0.015625)"/>
       <path id="LiberationSans-Bold-72" d="M 447 0 
L 447 2588 
Q 447 2866 439 3052 
Q 431 3238 422 3381 
L 1259 3381 
Q 1269 3325 1284 3039 
Q 1300 2753 1300 2659 
L 1313 2659 
Q 1441 3016 1541 3161 
Q 1641 3306 1778 3376 
Q 1916 3447 2122 3447 
Q 2291 3447 2394 3400 
L 2394 2666 
Q 2181 2713 2019 2713 
Q 1691 2713 1508 2447 
Q 1325 2181 1325 1659 
L 1325 0 
L 447 0 
z
" transform="scale(0.015625)"/>
       <path id="LiberationSans-Bold-74" d="M 1313 -56 
Q 925 -56 715 155 
Q 506 366 506 794 
L 506 2788 
L 78 2788 
L 78 3381 
L 550 3381 
L 825 4175 
L 1375 4175 
L 1375 3381 
L 2016 3381 
L 2016 2788 
L 1375 2788 
L 1375 1031 
Q 1375 784 1469 667 
Q 1563 550 1759 550 
Q 1863 550 2053 594 
L 2053 50 
Q 1728 -56 1313 -56 
z
" transform="scale(0.015625)"/>
       <path id="LiberationSans-Bold-75" d="M 1275 3381 
L 1275 1484 
Q 1275 594 1875 594 
Q 2194 594 2389 867 
Q 2584 1141 2584 1569 
L 2584 3381 
L 3463 3381 
L 3463 756 
Q 3463 325 3488 0 
L 2650 0 
Q 2613 450 2613 672 
L 2597 672 
Q 2422 288 2151 112 
Q 1881 -63 1509 -63 
Q 972 -63 684 267 
Q 397 597 397 1234 
L 397 3381 
L 1275 3381 
z
" transform="scale(0.015625)"/>
       <path id="LiberationSans-Bold-69" d="M 447 3991 
L 447 4638 
L 1325 4638 
L 1325 3991 
L 447 3991 
z
M 447 0 
L 447 3381 
L 1325 3381 
L 1325 0 
L 447 0 
z
" transform="scale(0.015625)"/>
       <path id="LiberationSans-Bold-6f" d="M 3659 1694 
Q 3659 872 3203 404 
Q 2747 -63 1941 -63 
Q 1150 -63 700 406 
Q 250 875 250 1694 
Q 250 2509 700 2976 
Q 1150 3444 1959 3444 
Q 2788 3444 3223 2992 
Q 3659 2541 3659 1694 
z
M 2741 1694 
Q 2741 2297 2544 2569 
Q 2347 2841 1972 2841 
Q 1172 2841 1172 1694 
Q 1172 1128 1367 833 
Q 1563 538 1931 538 
Q 2741 538 2741 1694 
z
" transform="scale(0.015625)"/>
      </defs>
      <use xlink:href="#LiberationSans-Bold-41"/>
      <use xlink:href="#LiberationSans-Bold-44" transform="translate(72.216797 0)"/>
      <use xlink:href="#LiberationSans-Bold-45" transform="translate(144.433594 0)"/>
      <use xlink:href="#LiberationSans-Bold-50" transform="translate(211.132812 0)"/>
      <use xlink:href="#LiberationSans-Bold-20" transform="translate(276.082031 0)"/>
      <use xlink:href="#LiberationSans-Bold-28" transform="translate(303.865234 0)"/>
      <use xlink:href="#LiberationSans-Bold-44" transform="translate(337.166016 0)"/>
      <use xlink:href="#LiberationSans-Bold-65" transform="translate(409.382812 0)"/>
      <use xlink:href="#LiberationSans-Bold-70" transform="translate(464.998047 0)"/>
      <use xlink:href="#LiberationSans-Bold-61" transform="translate(526.082031 0)"/>
      <use xlink:href="#LiberationSans-Bold-72" transform="translate(581.697266 0)"/>
      <use xlink:href="#LiberationSans-Bold-74" transform="translate(620.613281 0)"/>
      <use xlink:href="#LiberationSans-Bold-75" transform="translate(653.914062 0)"/>
      <use xlink:href="#LiberationSans-Bold-72" transform="translate(714.998047 0)"/>
      <use xlink:href="#LiberationSans-Bold-65" transform="translate(753.914062 0)"/>
      <use xlink:href="#LiberationSans-Bold-20" transform="translate(809.529297 0)"/>
      <use xlink:href="#LiberationSans-Bold-41" transform="translate(833.5625 0)"/>
      <use xlink:href="#LiberationSans-Bold-69" transform="translate(905.779297 0)"/>
      <use xlink:href="#LiberationSans-Bold-72" transform="translate(933.5625 0)"/>
      <use xlink:href="#LiberationSans-Bold-70" transform="translate(972.478516 0)"/>
      <use xlink:href="#LiberationSans-Bold-6f" transform="translate(1033.5625 0)"/>
      <use xlink:href="#LiberationSans-Bold-72" transform="translate(1094.646484 0)"/>
      <use xlink:href="#LiberationSans-Bold-74" transform="translate(1133.5625 0)"/>
      <use xlink:href="#LiberationSans-Bold-29" transform="translate(1166.863281 0)"/>
     </g>
    </g>
   </g>
   <g id="patch_3">
    <path d="M 62.85 512.968182 
L 423.386079 512.968182 
L 423.386079 488.739189 
L 62.85 488.739189 
z
" clip-path="url(#p37cf30042e)" style="fill: #fda762; stroke: #000000; stroke-width: 0.8; stroke-linejoin: miter"/>
   </g>
   <g id="patch_4">
    <path d="M 62.85 482.681941 
L 461.099298 482.681941 
L 461.099298 458.452948 
L 62.85 458.452948 
z
" clip-path="url(#p37cf30042e)" style="fill: #fd9e54; stroke: #000000; stroke-width: 0.8; stroke-linejoin: miter"/>
   </g>
   <g id="patch_5">
    <path d="M 62.85 452.3957 
L 495.12652 452.3957 
L 495.12652 428.166708 
L 62.85 428.166708 
z
" clip-path="url(#p37cf30042e)" style="fill: #fd9547; stroke: #000000; stroke-width: 0.8; stroke-linejoin: miter"/>
   </g>
   <g id="patch_6">
    <path d="M 62.85 422.109459 
L 504.095982 422.109459 
L 504.095982 397.880467 
L 62.85 397.880467 
z
" clip-path="url(#p37cf30042e)" style="fill: #fc8b3a; stroke: #000000; stroke-width: 0.8; stroke-linejoin: miter"/>
   </g>
   <g id="patch_7">
    <path d="M 62.85 391.823219 
L 508.541987 391.823219 
L 508.541987 367.594226 
L 62.85 367.594226 
z
" clip-path="url(#p37cf30042e)" style="fill: #f9812e; stroke: #000000; stroke-width: 0.8; stroke-linejoin: miter"/>
   </g>
   <g id="patch_8">
    <path d="M 62.85 361.536978 
L 523.482394 361.536978 
L 523.482394 337.307985 
L 62.85 337.307985 
z
" clip-path="url(#p37cf30042e)" style="fill: #f57622; stroke: #000000; stroke-width: 0.8; stroke-linejoin: miter"/>
   </g>
   <g id="patch_9">
    <path d="M 62.85 331.250737 
L 532.287599 331.250737 
L 532.287599 307.021744 
L 62.85 307.021744 
z
" clip-path="url(#p37cf30042e)" style="fill: #f26c16; stroke: #000000; stroke-width: 0.8; stroke-linejoin: miter"/>
   </g>
   <g id="patch_10">
    <path d="M 62.85 300.964496 
L 545.282508 300.964496 
L 545.282508 276.735504 
L 62.85 276.735504 
z
" clip-path="url(#p37cf30042e)" style="fill: #ec620f; stroke: #000000; stroke-width: 0.8; stroke-linejoin: miter"/>
   </g>
   <g id="patch_11">
    <path d="M 62.85 270.678256 
L 560.791545 270.678256 
L 560.791545 246.449263 
L 62.85 246.449263 
z
" clip-path="url(#p37cf30042e)" style="fill: #e5590a; stroke: #000000; stroke-width: 0.8; stroke-linejoin: miter"/>
   </g>
   <g id="patch_12">
    <path d="M 62.85 240.392015 
L 624.42203 240.392015 
L 624.42203 216.163022 
L 62.85 216.163022 
z
" clip-path="url(#p37cf30042e)" style="fill: #de5005; stroke: #000000; stroke-width: 0.8; stroke-linejoin: miter"/>
   </g>
   <g id="patch_13">
    <path d="M 62.85 210.105774 
L 650.495658 210.105774 
L 650.495658 185.876781 
L 62.85 185.876781 
z
" clip-path="url(#p37cf30042e)" style="fill: #d64701; stroke: #000000; stroke-width: 0.8; stroke-linejoin: miter"/>
   </g>
   <g id="patch_14">
    <path d="M 62.85 179.819533 
L 749.093196 179.819533 
L 749.093196 155.590541 
L 62.85 155.590541 
z
" clip-path="url(#p37cf30042e)" style="fill: #c84202; stroke: #000000; stroke-width: 0.8; stroke-linejoin: miter"/>
   </g>
   <g id="patch_15">
    <path d="M 62.85 149.533292 
L 774.775016 149.533292 
L 774.775016 125.3043 
L 62.85 125.3043 
z
" clip-path="url(#p37cf30042e)" style="fill: #b83c02; stroke: #000000; stroke-width: 0.8; stroke-linejoin: miter"/>
   </g>
   <g id="patch_16">
    <path d="M 62.85 119.247052 
L 789.511359 119.247052 
L 789.511359 95.018059 
L 62.85 95.018059 
z
" clip-path="url(#p37cf30042e)" style="fill: #a93703; stroke: #000000; stroke-width: 0.8; stroke-linejoin: miter"/>
   </g>
   <g id="patch_17">
    <path d="M 62.85 88.960811 
L 801.198852 88.960811 
L 801.198852 64.731818 
L 62.85 64.731818 
z
" clip-path="url(#p37cf30042e)" style="fill: #9e3303; stroke: #000000; stroke-width: 0.8; stroke-linejoin: miter"/>
   </g>
   <g id="patch_18">
    <path d="M 62.85 535.38 
L 62.85 42.32 
" style="fill: none"/>
   </g>
   <g id="patch_19">
    <path d="M 838.116294 535.38 
L 838.116294 42.32 
" style="fill: none"/>
   </g>
   <g id="patch_20">
    <path d="M 62.85 535.38 
L 838.116294 535.38 
" style="fill: none"/>
   </g>
   <g id="patch_21">
    <path d="M 62.85 42.32 
L 838.116294 42.32 
" style="fill: none"/>
   </g>
   <g id="text_24">
    <!-- n=2704 -->
    <g style="fill: #ff8c00" transform="translate(438.066376 503.439623) scale(0.1 -0.1)">
     <defs>
      <path id="LiberationSans-Bold-3d" d="M 266 2631 
L 266 3328 
L 3475 3328 
L 3475 2631 
L 266 2631 
z
M 266 909 
L 266 1600 
L 3475 1600 
L 3475 909 
L 266 909 
z
" transform="scale(0.015625)"/>
      <path id="LiberationSans-Bold-32" d="M 222 0 
L 222 609 
Q 394 988 711 1347 
Q 1028 1706 1509 2097 
Q 1972 2472 2158 2715 
Q 2344 2959 2344 3194 
Q 2344 3769 1766 3769 
Q 1484 3769 1336 3617 
Q 1188 3466 1144 3163 
L 259 3213 
Q 334 3825 717 4147 
Q 1100 4469 1759 4469 
Q 2472 4469 2853 4144 
Q 3234 3819 3234 3231 
Q 3234 2922 3112 2672 
Q 2991 2422 2800 2211 
Q 2609 2000 2376 1815 
Q 2144 1631 1925 1456 
Q 1706 1281 1526 1103 
Q 1347 925 1259 722 
L 3303 722 
L 3303 0 
L 222 0 
z
" transform="scale(0.015625)"/>
      <path id="LiberationSans-Bold-37" d="M 3278 3706 
Q 2981 3238 2717 2797 
Q 2453 2356 2256 1911 
Q 2059 1466 1945 995 
Q 1831 525 1831 0 
L 916 0 
Q 916 550 1059 1064 
Q 1203 1578 1475 2111 
Q 1747 2644 2463 3681 
L 275 3681 
L 275 4403 
L 3278 4403 
L 3278 3706 
z
" transform="scale(0.015625)"/>
      <path id="LiberationSans-Bold-30" d="M 3297 2203 
Q 3297 1088 2914 512 
Q 2531 -63 1766 -63 
Q 253 -63 253 2203 
Q 253 2994 418 3494 
Q 584 3994 915 4231 
Q 1247 4469 1791 4469 
Q 2572 4469 2934 3903 
Q 3297 3338 3297 2203 
z
M 2416 2203 
Q 2416 2813 2356 3150 
Q 2297 3488 2165 3634 
Q 2034 3781 1784 3781 
Q 1519 3781 1383 3632 
Q 1247 3484 1189 3148 
Q 1131 2813 1131 2203 
Q 1131 1600 1192 1261 
Q 1253 922 1386 775 
Q 1519 628 1772 628 
Q 2022 628 2158 783 
Q 2294 938 2355 1278 
Q 2416 1619 2416 2203 
z
" transform="scale(0.015625)"/>
      <path id="LiberationSans-Bold-34" d="M 2938 897 
L 2938 0 
L 2100 0 
L 2100 897 
L 97 897 
L 97 1556 
L 1956 4403 
L 2938 4403 
L 2938 1550 
L 3525 1550 
L 3525 897 
L 2938 897 
z
M 2100 2991 
Q 2100 3159 2111 3356 
Q 2122 3553 2128 3609 
Q 2047 3434 1834 3103 
L 813 1550 
L 2100 1550 
L 2100 2991 
z
" transform="scale(0.015625)"/>
     </defs>
     <use xlink:href="#LiberationSans-Bold-6e"/>
     <use xlink:href="#LiberationSans-Bold-3d" transform="translate(61.083984 0)"/>
     <use xlink:href="#LiberationSans-Bold-32" transform="translate(119.482422 0)"/>
     <use xlink:href="#LiberationSans-Bold-37" transform="translate(175.097656 0)"/>
     <use xlink:href="#LiberationSans-Bold-30" transform="translate(230.712891 0)"/>
     <use xlink:href="#LiberationSans-Bold-34" transform="translate(286.328125 0)"/>
    </g>
   </g>
   <g id="text_25">
    <!-- n=2865 -->
    <g style="fill: #ff8c00" transform="translate(475.779595 473.153382) scale(0.1 -0.1)">
     <defs>
      <path id="LiberationSans-Bold-38" d="M 3363 1241 
Q 3363 622 2953 279 
Q 2544 -63 1784 -63 
Q 1031 -63 617 278 
Q 203 619 203 1234 
Q 203 1656 447 1945 
Q 691 2234 1100 2303 
L 1100 2316 
Q 744 2394 525 2669 
Q 306 2944 306 3303 
Q 306 3844 689 4156 
Q 1072 4469 1772 4469 
Q 2488 4469 2870 4164 
Q 3253 3859 3253 3297 
Q 3253 2938 3036 2666 
Q 2819 2394 2453 2322 
L 2453 2309 
Q 2878 2241 3120 1961 
Q 3363 1681 3363 1241 
z
M 2350 3250 
Q 2350 3563 2206 3708 
Q 2063 3853 1772 3853 
Q 1203 3853 1203 3250 
Q 1203 2619 1778 2619 
Q 2066 2619 2208 2766 
Q 2350 2913 2350 3250 
z
M 2453 1313 
Q 2453 2003 1766 2003 
Q 1447 2003 1276 1822 
Q 1106 1641 1106 1300 
Q 1106 913 1275 734 
Q 1444 556 1791 556 
Q 2131 556 2292 734 
Q 2453 913 2453 1313 
z
" transform="scale(0.015625)"/>
      <path id="LiberationSans-Bold-35" d="M 3381 1466 
Q 3381 766 2945 351 
Q 2509 -63 1750 -63 
Q 1088 -63 689 235 
Q 291 534 197 1100 
L 1075 1172 
Q 1144 891 1319 762 
Q 1494 634 1759 634 
Q 2088 634 2283 843 
Q 2478 1053 2478 1447 
Q 2478 1794 2293 2001 
Q 2109 2209 1778 2209 
Q 1413 2209 1181 1925 
L 325 1925 
L 478 4403 
L 3125 4403 
L 3125 3750 
L 1275 3750 
L 1203 2638 
Q 1522 2919 2000 2919 
Q 2628 2919 3004 2528 
Q 3381 2138 3381 1466 
z
" transform="scale(0.015625)"/>
     </defs>
     <use xlink:href="#LiberationSans-Bold-6e"/>
     <use xlink:href="#LiberationSans-Bold-3d" transform="translate(61.083984 0)"/>
     <use xlink:href="#LiberationSans-Bold-32" transform="translate(119.482422 0)"/>
     <use xlink:href="#LiberationSans-Bold-38" transform="translate(175.097656 0)"/>
     <use xlink:href="#LiberationSans-Bold-36" transform="translate(230.712891 0)"/>
     <use xlink:href="#LiberationSans-Bold-35" transform="translate(286.328125 0)"/>
    </g>
   </g>
   <g id="text_26">
    <!-- n=1905 -->
    <g style="fill: #ff8c00" transform="translate(509.806817 442.867141) scale(0.1 -0.1)">
     <defs>
      <path id="LiberationSans-Bold-39" d="M 3322 2272 
Q 3322 1100 2894 518 
Q 2466 -63 1678 -63 
Q 1097 -63 767 185 
Q 438 434 300 972 
L 1125 1088 
Q 1247 628 1688 628 
Q 2056 628 2254 981 
Q 2453 1334 2459 2028 
Q 2341 1794 2070 1661 
Q 1800 1528 1488 1528 
Q 906 1528 564 1923 
Q 222 2319 222 2994 
Q 222 3688 623 4078 
Q 1025 4469 1759 4469 
Q 2550 4469 2936 3920 
Q 3322 3372 3322 2272 
z
M 2394 2888 
Q 2394 3297 2214 3539 
Q 2034 3781 1738 3781 
Q 1447 3781 1280 3570 
Q 1113 3359 1113 2988 
Q 1113 2622 1278 2401 
Q 1444 2181 1741 2181 
Q 2022 2181 2208 2373 
Q 2394 2566 2394 2888 
z
" transform="scale(0.015625)"/>
     </defs>
     <use xlink:href="#LiberationSans-Bold-6e"/>
     <use xlink:href="#LiberationSans-Bold-3d" transform="translate(61.083984 0)"/>
     <use xlink:href="#LiberationSans-Bold-31" transform="translate(119.482422 0)"/>
     <use xlink:href="#LiberationSans-Bold-39" transform="translate(175.097656 0)"/>
     <use xlink:href="#LiberationSans-Bold-30" transform="translate(230.712891 0)"/>
     <use xlink:href="#LiberationSans-Bold-35" transform="translate(286.328125 0)"/>
    </g>
   </g>
   <g id="text_27">
    <!-- n=2944 -->
    <g style="fill: #ff8c00" transform="translate(518.776279 412.580901) scale(0.1 -0.1)">
     <use xlink:href="#LiberationSans-Bold-6e"/>
     <use xlink:href="#LiberationSans-Bold-3d" transform="translate(61.083984 0)"/>
     <use xlink:href="#LiberationSans-Bold-32" transform="translate(119.482422 0)"/>
     <use xlink:href="#LiberationSans-Bold-39" transform="translate(175.097656 0)"/>
     <use xlink:href="#LiberationSans-Bold-34" transform="translate(230.712891 0)"/>
     <use xlink:href="#LiberationSans-Bold-34" transform="translate(286.328125 0)"/>
    </g>
   </g>
   <g id="text_28">
    <!-- n=1683 -->
    <g style="fill: #ff8c00" transform="translate(523.222284 382.29466) scale(0.1 -0.1)">
     <defs>
      <path id="LiberationSans-Bold-33" d="M 3328 1222 
Q 3328 603 2922 265 
Q 2516 -72 1766 -72 
Q 1056 -72 637 254 
Q 219 581 147 1197 
L 1041 1275 
Q 1125 641 1763 641 
Q 2078 641 2253 797 
Q 2428 953 2428 1275 
Q 2428 1569 2215 1725 
Q 2003 1881 1584 1881 
L 1278 1881 
L 1278 2591 
L 1566 2591 
Q 1944 2591 2134 2745 
Q 2325 2900 2325 3188 
Q 2325 3459 2173 3614 
Q 2022 3769 1731 3769 
Q 1459 3769 1292 3619 
Q 1125 3469 1100 3194 
L 222 3256 
Q 291 3825 694 4147 
Q 1097 4469 1747 4469 
Q 2438 4469 2827 4158 
Q 3216 3847 3216 3297 
Q 3216 2884 2973 2618 
Q 2731 2353 2275 2266 
L 2275 2253 
Q 2781 2194 3054 1920 
Q 3328 1647 3328 1222 
z
" transform="scale(0.015625)"/>
     </defs>
     <use xlink:href="#LiberationSans-Bold-6e"/>
     <use xlink:href="#LiberationSans-Bold-3d" transform="translate(61.083984 0)"/>
     <use xlink:href="#LiberationSans-Bold-31" transform="translate(119.482422 0)"/>
     <use xlink:href="#LiberationSans-Bold-36" transform="translate(175.097656 0)"/>
     <use xlink:href="#LiberationSans-Bold-38" transform="translate(230.712891 0)"/>
     <use xlink:href="#LiberationSans-Bold-33" transform="translate(286.328125 0)"/>
    </g>
   </g>
   <g id="text_29">
    <!-- n=2483 -->
    <g style="fill: #ff8c00" transform="translate(538.162691 352.008419) scale(0.1 -0.1)">
     <use xlink:href="#LiberationSans-Bold-6e"/>
     <use xlink:href="#LiberationSans-Bold-3d" transform="translate(61.083984 0)"/>
     <use xlink:href="#LiberationSans-Bold-32" transform="translate(119.482422 0)"/>
     <use xlink:href="#LiberationSans-Bold-34" transform="translate(175.097656 0)"/>
     <use xlink:href="#LiberationSans-Bold-38" transform="translate(230.712891 0)"/>
     <use xlink:href="#LiberationSans-Bold-33" transform="translate(286.328125 0)"/>
    </g>
   </g>
   <g id="text_30">
    <!-- n=3522 -->
    <g style="fill: #ff8c00" transform="translate(546.967896 321.722178) scale(0.1 -0.1)">
     <use xlink:href="#LiberationSans-Bold-6e"/>
     <use xlink:href="#LiberationSans-Bold-3d" transform="translate(61.083984 0)"/>
     <use xlink:href="#LiberationSans-Bold-33" transform="translate(119.482422 0)"/>
     <use xlink:href="#LiberationSans-Bold-35" transform="translate(175.097656 0)"/>
     <use xlink:href="#LiberationSans-Bold-32" transform="translate(230.712891 0)"/>
     <use xlink:href="#LiberationSans-Bold-32" transform="translate(286.328125 0)"/>
    </g>
   </g>
   <g id="text_31">
    <!-- n=3677 -->
    <g style="fill: #ff8c00" transform="translate(559.962805 291.435938) scale(0.1 -0.1)">
     <use xlink:href="#LiberationSans-Bold-6e"/>
     <use xlink:href="#LiberationSans-Bold-3d" transform="translate(61.083984 0)"/>
     <use xlink:href="#LiberationSans-Bold-33" transform="translate(119.482422 0)"/>
     <use xlink:href="#LiberationSans-Bold-36" transform="translate(175.097656 0)"/>
     <use xlink:href="#LiberationSans-Bold-37" transform="translate(230.712891 0)"/>
     <use xlink:href="#LiberationSans-Bold-37" transform="translate(286.328125 0)"/>
    </g>
   </g>
   <g id="text_32">
    <!-- n=2115 -->
    <g style="fill: #ff8c00" transform="translate(575.471842 261.149697) scale(0.1 -0.1)">
     <use xlink:href="#LiberationSans-Bold-6e"/>
     <use xlink:href="#LiberationSans-Bold-3d" transform="translate(61.083984 0)"/>
     <use xlink:href="#LiberationSans-Bold-32" transform="translate(119.482422 0)"/>
     <use xlink:href="#LiberationSans-Bold-31" transform="translate(175.097656 0)"/>
     <use xlink:href="#LiberationSans-Bold-31" transform="translate(225.212891 0)"/>
     <use xlink:href="#LiberationSans-Bold-35" transform="translate(280.828125 0)"/>
    </g>
   </g>
   <g id="text_33">
    <!-- n=1824 -->
    <g style="fill: #ff8c00" transform="translate(639.102327 230.863456) scale(0.1 -0.1)">
     <use xlink:href="#LiberationSans-Bold-6e"/>
     <use xlink:href="#LiberationSans-Bold-3d" transform="translate(61.083984 0)"/>
     <use xlink:href="#LiberationSans-Bold-31" transform="translate(119.482422 0)"/>
     <use xlink:href="#LiberationSans-Bold-38" transform="translate(175.097656 0)"/>
     <use xlink:href="#LiberationSans-Bold-32" transform="translate(230.712891 0)"/>
     <use xlink:href="#LiberationSans-Bold-34" transform="translate(286.328125 0)"/>
    </g>
   </g>
   <g id="text_34">
    <!-- n=1729 -->
    <g style="fill: #ff8c00" transform="translate(665.175955 200.577215) scale(0.1 -0.1)">
     <use xlink:href="#LiberationSans-Bold-6e"/>
     <use xlink:href="#LiberationSans-Bold-3d" transform="translate(61.083984 0)"/>
     <use xlink:href="#LiberationSans-Bold-31" transform="translate(119.482422 0)"/>
     <use xlink:href="#LiberationSans-Bold-37" transform="translate(175.097656 0)"/>
     <use xlink:href="#LiberationSans-Bold-32" transform="translate(230.712891 0)"/>
     <use xlink:href="#LiberationSans-Bold-39" transform="translate(286.328125 0)"/>
    </g>
   </g>
   <g id="text_35">
    <!-- n=1978 -->
    <g style="fill: #ff8c00" transform="translate(763.773493 170.290974) scale(0.1 -0.1)">
     <use xlink:href="#LiberationSans-Bold-6e"/>
     <use xlink:href="#LiberationSans-Bold-3d" transform="translate(61.083984 0)"/>
     <use xlink:href="#LiberationSans-Bold-31" transform="translate(119.482422 0)"/>
     <use xlink:href="#LiberationSans-Bold-39" transform="translate(175.097656 0)"/>
     <use xlink:href="#LiberationSans-Bold-37" transform="translate(230.712891 0)"/>
     <use xlink:href="#LiberationSans-Bold-38" transform="translate(286.328125 0)"/>
    </g>
   </g>
   <g id="text_36">
    <!-- n=4437 -->
    <g style="fill: #ff8c00" transform="translate(789.455313 140.004734) scale(0.1 -0.1)">
     <use xlink:href="#LiberationSans-Bold-6e"/>
     <use xlink:href="#LiberationSans-Bold-3d" transform="translate(61.083984 0)"/>
     <use xlink:href="#LiberationSans-Bold-34" transform="translate(119.482422 0)"/>
     <use xlink:href="#LiberationSans-Bold-34" transform="translate(175.097656 0)"/>
     <use xlink:href="#LiberationSans-Bold-33" transform="translate(230.712891 0)"/>
     <use xlink:href="#LiberationSans-Bold-37" transform="translate(286.328125 0)"/>
    </g>
   </g>
   <g id="text_37">
    <!-- n=3586 -->
    <g style="fill: #ff8c00" transform="translate(804.191656 109.718493) scale(0.1 -0.1)">
     <use xlink:href="#LiberationSans-Bold-6e"/>
     <use xlink:href="#LiberationSans-Bold-3d" transform="translate(61.083984 0)"/>
     <use xlink:href="#LiberationSans-Bold-33" transform="translate(119.482422 0)"/>
     <use xlink:href="#LiberationSans-Bold-35" transform="translate(175.097656 0)"/>
     <use xlink:href="#LiberationSans-Bold-38" transform="translate(230.712891 0)"/>
     <use xlink:href="#LiberationSans-Bold-36" transform="translate(286.328125 0)"/>
    </g>
   </g>
   <g id="text_38">
    <!-- n=2355 -->
    <g style="fill: #ff8c00" transform="translate(815.879149 79.432252) scale(0.1 -0.1)">
     <use xlink:href="#LiberationSans-Bold-6e"/>
     <use xlink:href="#LiberationSans-Bold-3d" transform="translate(61.083984 0)"/>
     <use xlink:href="#LiberationSans-Bold-32" transform="translate(119.482422 0)"/>
     <use xlink:href="#LiberationSans-Bold-33" transform="translate(175.097656 0)"/>
     <use xlink:href="#LiberationSans-Bold-35" transform="translate(230.712891 0)"/>
     <use xlink:href="#LiberationSans-Bold-35" transform="translate(286.328125 0)"/>
    </g>
   </g>
   <g id="text_39">
    <!-- Top 15 Most Frequent ADEPs - Mean KPI16 (Additional Consumption) -->
    <g style="fill: #262626" transform="translate(186.936897 22.32) scale(0.16 -0.16)">
     <defs>
      <path id="LiberationSans-Bold-54" d="M 2416 3691 
L 2416 0 
L 1494 0 
L 1494 3691 
L 72 3691 
L 72 4403 
L 3841 4403 
L 3841 3691 
L 2416 3691 
z
" transform="scale(0.015625)"/>
      <path id="LiberationSans-Bold-73" d="M 3297 988 
Q 3297 497 2895 217 
Q 2494 -63 1784 -63 
Q 1088 -63 717 157 
Q 347 378 225 844 
L 997 959 
Q 1063 719 1223 619 
Q 1384 519 1784 519 
Q 2153 519 2322 612 
Q 2491 706 2491 906 
Q 2491 1069 2355 1164 
Q 2219 1259 1894 1325 
Q 1150 1472 890 1598 
Q 631 1725 495 1926 
Q 359 2128 359 2422 
Q 359 2906 732 3176 
Q 1106 3447 1791 3447 
Q 2394 3447 2761 3212 
Q 3128 2978 3219 2534 
L 2441 2453 
Q 2403 2659 2256 2761 
Q 2109 2863 1791 2863 
Q 1478 2863 1322 2783 
Q 1166 2703 1166 2516 
Q 1166 2369 1286 2283 
Q 1406 2197 1691 2141 
Q 2088 2059 2395 1973 
Q 2703 1888 2889 1769 
Q 3075 1650 3186 1464 
Q 3297 1278 3297 988 
z
" transform="scale(0.015625)"/>
      <path id="LiberationSans-Bold-46" d="M 1350 3691 
L 1350 2328 
L 3603 2328 
L 3603 1616 
L 1350 1616 
L 1350 0 
L 428 0 
L 428 4403 
L 3675 4403 
L 3675 3691 
L 1350 3691 
z
" transform="scale(0.015625)"/>
      <path id="LiberationSans-Bold-71" d="M 263 1688 
Q 263 2525 605 2986 
Q 947 3447 1569 3447 
Q 2306 3447 2591 2838 
Q 2591 2981 2608 3157 
Q 2625 3334 2638 3381 
L 3481 3381 
Q 3463 3044 3463 2603 
L 3463 -1328 
L 2591 -1328 
L 2591 78 
L 2606 563 
L 2600 563 
Q 2309 -63 1497 -63 
Q 906 -63 584 398 
Q 263 859 263 1688 
z
M 2597 1706 
Q 2597 2247 2415 2545 
Q 2234 2844 1881 2844 
Q 1178 2844 1178 1688 
Q 1178 538 1875 538 
Q 2219 538 2408 842 
Q 2597 1147 2597 1706 
z
" transform="scale(0.015625)"/>
      <path id="LiberationSans-Bold-2d" d="M 250 1278 
L 250 2041 
L 1875 2041 
L 1875 1278 
L 250 1278 
z
" transform="scale(0.015625)"/>
      <path id="LiberationSans-Bold-64" d="M 2638 0 
Q 2625 47 2608 236 
Q 2591 425 2591 550 
L 2578 550 
Q 2294 -63 1497 -63 
Q 906 -63 584 398 
Q 263 859 263 1688 
Q 263 2528 602 2986 
Q 941 3444 1563 3444 
Q 1922 3444 2183 3294 
Q 2444 3144 2584 2847 
L 2591 2847 
L 2584 3403 
L 2584 4638 
L 3463 4638 
L 3463 738 
Q 3463 425 3488 0 
L 2638 0 
z
M 2597 1709 
Q 2597 2256 2414 2551 
Q 2231 2847 1875 2847 
Q 1522 2847 1350 2561 
Q 1178 2275 1178 1688 
Q 1178 538 1869 538 
Q 2216 538 2406 842 
Q 2597 1147 2597 1709 
z
" transform="scale(0.015625)"/>
      <path id="LiberationSans-Bold-6c" d="M 447 0 
L 447 4638 
L 1325 4638 
L 1325 0 
L 447 0 
z
" transform="scale(0.015625)"/>
      <path id="LiberationSans-Bold-43" d="M 2484 663 
Q 3319 663 3644 1500 
L 4447 1197 
Q 4188 559 3686 248 
Q 3184 -63 2484 -63 
Q 1422 -63 842 539 
Q 263 1141 263 2222 
Q 263 3306 822 3887 
Q 1381 4469 2444 4469 
Q 3219 4469 3706 4158 
Q 4194 3847 4391 3244 
L 3578 3022 
Q 3475 3353 3173 3548 
Q 2872 3744 2463 3744 
Q 1838 3744 1514 3356 
Q 1191 2969 1191 2222 
Q 1191 1463 1523 1063 
Q 1856 663 2484 663 
z
" transform="scale(0.015625)"/>
      <path id="LiberationSans-Bold-6d" d="M 2438 0 
L 2438 1897 
Q 2438 2788 1925 2788 
Q 1659 2788 1492 2516 
Q 1325 2244 1325 1813 
L 1325 0 
L 447 0 
L 447 2625 
Q 447 2897 439 3070 
Q 431 3244 422 3381 
L 1259 3381 
Q 1269 3322 1284 3064 
Q 1300 2806 1300 2709 
L 1313 2709 
Q 1475 3097 1717 3272 
Q 1959 3447 2297 3447 
Q 3072 3447 3238 2709 
L 3256 2709 
Q 3428 3103 3668 3275 
Q 3909 3447 4281 3447 
Q 4775 3447 5034 3111 
Q 5294 2775 5294 2147 
L 5294 0 
L 4422 0 
L 4422 1897 
Q 4422 2788 3909 2788 
Q 3653 2788 3489 2539 
Q 3325 2291 3309 1853 
L 3309 0 
L 2438 0 
z
" transform="scale(0.015625)"/>
     </defs>
     <use xlink:href="#LiberationSans-Bold-54"/>
     <use xlink:href="#LiberationSans-Bold-6f" transform="translate(53.708984 0)"/>
     <use xlink:href="#LiberationSans-Bold-70" transform="translate(114.792969 0)"/>
     <use xlink:href="#LiberationSans-Bold-20" transform="translate(175.876953 0)"/>
     <use xlink:href="#LiberationSans-Bold-31" transform="translate(203.660156 0)"/>
     <use xlink:href="#LiberationSans-Bold-35" transform="translate(259.275391 0)"/>
     <use xlink:href="#LiberationSans-Bold-20" transform="translate(314.890625 0)"/>
     <use xlink:href="#LiberationSans-Bold-4d" transform="translate(342.673828 0)"/>
     <use xlink:href="#LiberationSans-Bold-6f" transform="translate(425.974609 0)"/>
     <use xlink:href="#LiberationSans-Bold-73" transform="translate(487.058594 0)"/>
     <use xlink:href="#LiberationSans-Bold-74" transform="translate(542.673828 0)"/>
     <use xlink:href="#LiberationSans-Bold-20" transform="translate(575.974609 0)"/>
     <use xlink:href="#LiberationSans-Bold-46" transform="translate(603.757812 0)"/>
     <use xlink:href="#LiberationSans-Bold-72" transform="translate(664.841797 0)"/>
     <use xlink:href="#LiberationSans-Bold-65" transform="translate(703.757812 0)"/>
     <use xlink:href="#LiberationSans-Bold-71" transform="translate(759.373047 0)"/>
     <use xlink:href="#LiberationSans-Bold-75" transform="translate(820.457031 0)"/>
     <use xlink:href="#LiberationSans-Bold-65" transform="translate(881.541016 0)"/>
     <use xlink:href="#LiberationSans-Bold-6e" transform="translate(937.15625 0)"/>
     <use xlink:href="#LiberationSans-Bold-74" transform="translate(998.240234 0)"/>
     <use xlink:href="#LiberationSans-Bold-20" transform="translate(1031.541016 0)"/>
     <use xlink:href="#LiberationSans-Bold-41" transform="translate(1055.574219 0)"/>
     <use xlink:href="#LiberationSans-Bold-44" transform="translate(1127.791016 0)"/>
     <use xlink:href="#LiberationSans-Bold-45" transform="translate(1200.007812 0)"/>
     <use xlink:href="#LiberationSans-Bold-50" transform="translate(1266.707031 0)"/>
     <use xlink:href="#LiberationSans-Bold-73" transform="translate(1333.40625 0)"/>
     <use xlink:href="#LiberationSans-Bold-20" transform="translate(1389.021484 0)"/>
     <use xlink:href="#LiberationSans-Bold-2d" transform="translate(1416.804688 0)"/>
     <use xlink:href="#LiberationSans-Bold-20" transform="translate(1450.105469 0)"/>
     <use xlink:href="#LiberationSans-Bold-4d" transform="translate(1477.888672 0)"/>
     <use xlink:href="#LiberationSans-Bold-65" transform="translate(1561.189453 0)"/>
     <use xlink:href="#LiberationSans-Bold-61" transform="translate(1616.804688 0)"/>
     <use xlink:href="#LiberationSans-Bold-6e" transform="translate(1672.419922 0)"/>
     <use xlink:href="#LiberationSans-Bold-20" transform="translate(1733.503906 0)"/>
     <use xlink:href="#LiberationSans-Bold-4b" transform="translate(1761.287109 0)"/>
     <use xlink:href="#LiberationSans-Bold-50" transform="translate(1833.503906 0)"/>
     <use xlink:href="#LiberationSans-Bold-49" transform="translate(1900.203125 0)"/>
     <use xlink:href="#LiberationSans-Bold-31" transform="translate(1927.986328 0)"/>
     <use xlink:href="#LiberationSans-Bold-36" transform="translate(1983.601562 0)"/>
     <use xlink:href="#LiberationSans-Bold-20" transform="translate(2039.216797 0)"/>
     <use xlink:href="#LiberationSans-Bold-28" transform="translate(2067 0)"/>
     <use xlink:href="#LiberationSans-Bold-41" transform="translate(2100.300781 0)"/>
     <use xlink:href="#LiberationSans-Bold-64" transform="translate(2172.517578 0)"/>
     <use xlink:href="#LiberationSans-Bold-64" transform="translate(2233.601562 0)"/>
     <use xlink:href="#LiberationSans-Bold-69" transform="translate(2294.685547 0)"/>
     <use xlink:href="#LiberationSans-Bold-74" transform="translate(2322.46875 0)"/>
     <use xlink:href="#LiberationSans-Bold-69" transform="translate(2355.769531 0)"/>
     <use xlink:href="#LiberationSans-Bold-6f" transform="translate(2383.552734 0)"/>
     <use xlink:href="#LiberationSans-Bold-6e" transform="translate(2444.636719 0)"/>
     <use xlink:href="#LiberationSans-Bold-61" transform="translate(2505.720703 0)"/>
     <use xlink:href="#LiberationSans-Bold-6c" transform="translate(2561.335938 0)"/>
     <use xlink:href="#LiberationSans-Bold-20" transform="translate(2589.119141 0)"/>
     <use xlink:href="#LiberationSans-Bold-43" transform="translate(2616.902344 0)"/>
     <use xlink:href="#LiberationSans-Bold-6f" transform="translate(2689.119141 0)"/>
     <use xlink:href="#LiberationSans-Bold-6e" transform="translate(2750.203125 0)"/>
     <use xlink:href="#LiberationSans-Bold-73" transform="translate(2811.287109 0)"/>
     <use xlink:href="#LiberationSans-Bold-75" transform="translate(2866.902344 0)"/>
     <use xlink:href="#LiberationSans-Bold-6d" transform="translate(2927.986328 0)"/>
     <use xlink:href="#LiberationSans-Bold-70" transform="translate(3016.902344 0)"/>
     <use xlink:href="#LiberationSans-Bold-74" transform="translate(3077.986328 0)"/>
     <use xlink:href="#LiberationSans-Bold-69" transform="translate(3111.287109 0)"/>
     <use xlink:href="#LiberationSans-Bold-6f" transform="translate(3139.070312 0)"/>
     <use xlink:href="#LiberationSans-Bold-6e" transform="translate(3200.154297 0)"/>
     <use xlink:href="#LiberationSans-Bold-29" transform="translate(3261.238281 0)"/>
    </g>
   </g>
  </g>
 </g>
 <defs>
  <clipPath id="p37cf30042e">
   <rect x="62.85" y="42.32" width="775.266294" height="493.06"/>
  </clipPath>
 </defs>
</svg>
